<?xml version="1.0"?>
<svg version="1.1" xmlns="http://www.w3.org/2000/svg" width="400px" height="200px" style=""><path fill="#0f0e0e" d="M2.70703125,137.0390625q-0.04296875-1.2890625-0.04296875-2.578125q0-4.0390625,0.4296875-8.12109375q0.515625-5.4140625,0.6875-10.65625q0.171875-6.14453125,0.515625-12.76171875q0.21484375-3.609375,0.21484375-7.1328125q0-2.87890625-0.12890625-5.71484375q0.4296875-0.98828125,1.138671875-1.33203125t1.783203125-0.34375q0.515625,0,1.095703125,0.0859375t1.009765625,0.4296875q0.6015625,0.0859375,1.482421875,0.171875t1.353515625,0.515625q0.171875,0.2578125,0.880859375,1.76171875t1.67578125,3.65234375t2.01953125,4.662109375t2.01953125,4.76953125t1.67578125,3.974609375t0.880859375,2.1484375q4.0390625-7.3046875,7.90625-15.017578125t8.46484375-14.544921875q0.4296875-0.6015625,1.482421875-0.880859375t1.740234375-0.279296875q1.84765625,0,2.685546875,0.880859375t1.095703125,2.255859375q0.171875,0.859375,0.21484375,1.84765625q0.04296875,0.515625-0.04296875,1.07421875q-0.171875,1.58984375-0.171875,3.0078125q0,10.01171875-0.6875,19.873046875t-1.24609375,19.916015625q-0.0859375,2.0625-0.0859375,4.296875t0.0859375,4.640625q0.04296875,0.859375,0.04296875,1.67578125q0,3.78125-0.64453125,7.046875q-0.6015625,0.98828125-1.9765625,1.24609375t-2.3203125,0.2578125q-2.01953125,0-3.8671875-0.9453125l-0.47265625-0.55859375l-0.171875-0.6875t-0.0859375-0.6875q0-6.23046875,0.451171875-12.546875t1.009765625-12.611328125t1.181640625-12.568359375t1.052734375-12.546875q-2.53515625,4.2109375-4.919921875,8.572265625t-4.490234375,8.873046875q-0.7734375,1.76171875-1.482421875,3.78125t-1.697265625,3.609375q-0.515625,0.7734375-1.740234375,0.9453125t-2.126953125,0.171875q-0.859375,0-1.783203125-0.30078125t-1.267578125-1.2890625q-1.58984375-4.85546875-3.39453125-9.49609375t-3.65234375-9.41015625q0,3.1796875,0.12890625,8.228515625t0.12890625,10.462890625t-0.171875,10.35546875t-0.81640625,7.8203125q-0.171875,1.07421875-1.396484375,1.33203125t-2.126953125,0.2578125q-0.6875,0-1.310546875-0.0859375t-1.224609375-0.34375z M53.7397265625,127.97265625q0-2.921875,0.794921875-5.62890625t2.384765625-4.833984375t3.974609375-3.39453125t5.521484375-1.267578125q1.93359375,0,4.275390625,0.580078125t4.404296875,1.71875t3.4375,2.900390625t1.375,4.0390625q0,1.07421875-0.365234375,1.6328125t-1.482421875,0.55859375l-0.47265625-0.0859375q1.24609375,3.3515625,2.1484375,6.875t1.76171875,7.046875q0.34375,0.6875,0.515625,1.224609375t0.171875,1.052734375q0,0.6875-0.38671875,1.138671875t-1.009765625,0.666015625t-1.2890625,0.30078125t-1.181640625,0.0859375q-1.84765625,0-2.771484375-0.64453125t-1.33203125-1.76171875t-0.494140625-2.513671875t-0.34375-2.814453125q-0.515625,1.67578125-1.353515625,3.265625t-1.9765625,2.857421875t-2.685546875,2.01953125t-3.48046875,0.751953125q-2.8359375,0-4.76953125-1.6328125t-3.115234375-4.017578125t-1.71875-5.091796875t-0.537109375-5.02734375z M59.8412890625,127.37109375q0,1.58984375,0.21484375,3.3515625t0.708984375,3.48046875t1.267578125,3.244140625t1.93359375,2.685546875q2.10546875-2.27734375,3.115234375-5.54296875t1.8046875-6.294921875t1.8046875-5.19921875t3.115234375-2.169921875q1.33203125,0,2.234375,0.47265625q-0.4296875-1.07421875-1.41796875-2.083984375t-2.212890625-1.84765625t-2.53515625-1.375t-2.470703125-0.537109375q-0.34375,0-0.794921875,0.107421875t-0.708984375,0.021484375q-1.76171875,0.515625-2.900390625,1.783203125t-1.84765625,2.986328125t-1.009765625,3.5234375t-0.30078125,3.39453125z M89.217734375,100.6875q0-0.6015625,1.2890625-1.03125t2.921875-0.708984375t3.158203125-0.408203125t2.083984375-0.21484375q0-1.16015625,0.0859375-2.341796875t0.47265625-2.10546875t1.224609375-1.482421875t2.341796875-0.55859375q1.24609375,0,1.890625,0.30078125t1.375,1.24609375q0.171875,0.515625,0.171875,0.98828125l0,1.439453125t-0.0859375,1.482421875q1.58984375-0.171875,3.158203125-0.408203125t3.158203125-0.236328125q1.16015625,0,1.58984375,0.04296875t0.859375,1.03125q0.34375,0.98828125-0.837890625,1.50390625t-2.8359375,0.7734375t-3.287109375,0.38671875t-1.9765625,0.12890625q-0.515625,7.390625-1.052734375,14.65234375t-0.537109375,14.73828125q0,3.3515625,0.21484375,6.91796875t1.203125,6.74609375q0.2578125,0.98828125,0.859375,1.84765625t0.6015625,1.84765625q0,0.6015625-0.47265625,0.9453125t-1.138671875,0.580078125t-1.33203125,0.279296875t-1.095703125,0.04296875q-2.70703125,0-4.125-2.01953125t-2.041015625-4.833984375t-0.666015625-5.779296875t-0.04296875-4.8125q0-3.78125,0.150390625-7.734375t0.365234375-7.8203125t0.6015625-7.5625t0.90234375-6.875q-1.50390625,0.171875-2.943359375,0.38671875t-2.943359375,0.21484375q-0.34375,0-0.923828125-0.04296875t-1.095703125-0.21484375t-0.880859375-0.47265625t-0.365234375-0.859375z M122.0746484375,132.65625l0-4.0390625q0-2.19140625,0.107421875-6.208984375t0.279296875-8.80859375t0.47265625-9.990234375t0.6875-9.818359375t0.923828125-8.271484375t1.224609375-5.4140625q0.4296875-0.98828125,1.41796875-1.24609375t1.93359375-0.2578125q1.50390625,0,2.642578125,0.666015625t1.138671875,2.427734375l-0.7734375,0.859375q-1.50390625,9.92578125-1.93359375,19.9375t-0.6015625,20.0234375q1.07421875-1.67578125,2.427734375-3.287109375t3.0078125-2.857421875t3.56640625-1.998046875t4.189453125-0.751953125q2.921875,0,4.833984375,1.76171875t3.158203125,4.576171875t1.84765625,6.294921875t0.923828125,6.9609375t0.451171875,6.595703125t0.38671875,5.177734375q-0.81640625,1.1171875-2.40625,1.1171875l-0.12890625,0q-0.6875,0-1.50390625-0.171875t-1.07421875-0.859375l0.0859375,0.0859375q-0.6015625-1.33203125-0.81640625-3.845703125t-0.34375-5.54296875t-0.451171875-6.208984375t-0.966796875-5.7578125t-1.890625-4.25390625t-3.3515625-1.76171875l-0.2578125,0q-2.53515625,0-4.25390625,1.546875q-1.8046875,1.6328125-2.921875,4.296875t-1.71875,5.9296875t-0.923828125,6.294921875t-0.494140625,5.5t-0.4296875,3.630859375q-0.2578125,0.98828125-1.525390625,1.310546875t-2.169921875,0.322265625q-2.10546875,0-3.4375-1.203125q-0.98828125-2.36328125-1.16015625-5.88671875t-0.171875-6.875z M163.1815625,129.734375q0-3.0078125,0.666015625-7.08984375t2.255859375-7.734375t4.189453125-6.208984375t6.552734375-2.556640625q3.6953125,0,5.54296875,2.126953125t1.84765625,5.736328125q0,2.36328125-0.880859375,5.177734375t-2.513671875,5.328125t-3.8671875,4.189453125t-4.984375,1.67578125l-1.1171875-0.0859375q0,1.16015625,0.34375,3.115234375t1.009765625,3.888671875t1.71875,3.39453125t2.556640625,1.4609375q2.19140625,0,4.2109375-1.76171875t3.82421875-3.91015625t3.3515625-3.91015625t2.8359375-1.76171875q0.6875,0,1.41796875,0.21484375t0.81640625,1.203125q0,0.6015625-0.322265625,0.98828125t-0.580078125,0.859375q-1.33203125,2.27734375-2.900390625,4.33984375t-3.544921875,3.73828125t-4.318359375,2.642578125t-5.177734375,0.966796875q-3.6953125,0-6.14453125-1.310546875t-3.953125-3.5234375t-2.169921875-5.11328125t-0.666015625-6.080078125z M170.87296875,126.46875l1.203125,1.07421875q0.859375,0.7734375,1.71875,0.34375t1.546875-1.568359375t1.267578125-2.814453125t1.03125-3.4375t0.666015625-3.4375t0.21484375-2.79296875l0-1.4609375t-0.12890625-1.546875t-0.451171875-1.224609375t-1.009765625-0.623046875q-0.21484375-0.04296875-0.38671875-0.04296875q-1.4609375,0-2.4921875,1.84765625q-1.1171875,2.0625-1.8046875,5.005859375t-0.98828125,6.037109375t-0.38671875,4.640625z M199.1751953125,131.41015625q0-1.58984375,0.064453125-4.662109375t0.451171875-6.251953125t1.267578125-5.7578125t2.642578125-3.30859375q0.4296875-0.171875,1.396484375-0.30078125t1.93359375-0.0859375t1.71875,0.34375t0.751953125,1.1171875q0,0.171875-0.171875,0.47265625t-0.90234375,0.9453125q-1.33203125,3.6953125-1.6328125,7.34765625t-0.30078125,7.51953125q0,2.27734375,0.150390625,4.5546875t0.494140625,4.59765625q0.6875-0.98828125,1.396484375-2.96484375t1.50390625-4.318359375t1.6328125-4.748046875t1.890625-4.3828125t2.3203125-3.265625t2.857421875-1.2890625q1.76171875,0,2.943359375,2.212890625t2.19140625,5.11328125t1.890625,5.88671875t2.126953125,4.576171875q0.6015625-0.6015625,0.966796875-1.568359375t0.580078125-2.083984375t0.2578125-2.212890625t0.04296875-1.869140625q0-1.93359375-0.580078125-4.189453125t-1.224609375-4.232421875t-1.224609375-3.330078125t-0.580078125-1.568359375q0-0.34375,0.365234375-0.55859375t0.837890625-0.34375t0.966796875-0.171875t0.751953125-0.04296875q1.58984375,0,2.728515625,1.76171875t1.8046875,4.08203125t0.966796875,4.705078125t0.30078125,3.716796875q0,1.67578125-0.2578125,3.56640625t-0.966796875,3.501953125t-2.083984375,2.685546875t-3.48046875,1.07421875q-2.53515625,0-4.16796875-1.41796875t-2.642578125-3.4375t-1.58984375-4.404296875t-1.095703125-4.318359375q-0.98828125,2.27734375-1.8046875,5.7578125t-2.0625,6.83203125t-3.1796875,5.71484375t-5.02734375,2.36328125t-4.404296875-1.525390625t-2.083984375-4.189453125l0.0859375,0.0859375q-0.515625-1.93359375-0.666015625-3.8671875t-0.150390625-3.8671875z M243.547734375,135.8359375q0-1.50390625,1.03125-1.912109375t2.234375-0.408203125q2.10546875,0,3.56640625,1.890625t2.771484375,4.146484375t2.599609375,4.146484375t3.05078125,1.890625q1.33203125,0,2.427734375-0.666015625t1.890625-1.67578125t1.224609375-2.27734375t0.4296875-2.513671875q0-3.265625-1.310546875-6.74609375t-3.3515625-7.17578125t-4.318359375-7.5625t-4.296875-7.86328125t-3.3515625-8.142578125t-1.33203125-8.357421875q0-6.31640625,3.78125-9.796875t9.96875-3.48046875q2.10546875,0,4.25390625,0.6015625t3.953125,1.8046875t2.943359375,2.96484375t1.138671875,4.125q0,0.7734375-1.138671875,1.009765625t-1.654296875,0.236328125q-0.7734375,0-1.67578125-0.193359375t-1.16015625-1.052734375t-0.73046875-1.9765625t-1.181640625-2.083984375t-1.67578125-1.67578125t-2.126953125-0.708984375q-1.93359375,0-3.287109375,0.794921875t-2.19140625,2.126953125t-1.24609375,2.986328125t-0.408203125,3.416015625q0,4.125,1.41796875,8.314453125t3.5234375,8.3359375t4.576171875,8.185546875t4.576171875,7.86328125t3.5234375,7.4765625t1.41796875,6.91796875q0,2.921875-1.375,4.94140625t-3.48046875,3.287109375t-4.662109375,1.84765625t-5.005859375,0.580078125q-2.62109375,0-5.37109375-1.052734375t-4.94140625-2.900390625t-3.609375-4.318359375t-1.41796875-5.349609375z M282.2054296875,132.65625l0-4.0390625q0-2.19140625,0.107421875-6.208984375t0.279296875-8.80859375t0.47265625-9.990234375t0.6875-9.818359375t0.923828125-8.271484375t1.224609375-5.4140625q0.4296875-0.98828125,1.41796875-1.24609375t1.93359375-0.2578125q1.50390625,0,2.642578125,0.666015625t1.138671875,2.427734375l-0.7734375,0.859375q-1.50390625,9.92578125-1.93359375,19.9375t-0.6015625,20.0234375q1.07421875-1.67578125,2.427734375-3.287109375t3.0078125-2.857421875t3.56640625-1.998046875t4.189453125-0.751953125q2.921875,0,4.833984375,1.76171875t3.158203125,4.576171875t1.84765625,6.294921875t0.923828125,6.9609375t0.451171875,6.595703125t0.38671875,5.177734375q-0.81640625,1.1171875-2.40625,1.1171875l-0.12890625,0q-0.6875,0-1.50390625-0.171875t-1.07421875-0.859375l0.0859375,0.0859375q-0.6015625-1.33203125-0.81640625-3.845703125t-0.34375-5.54296875t-0.451171875-6.208984375t-0.966796875-5.7578125t-1.890625-4.25390625t-3.3515625-1.76171875l-0.2578125,0q-2.53515625,0-4.25390625,1.546875q-1.8046875,1.6328125-2.921875,4.296875t-1.71875,5.9296875t-0.923828125,6.294921875t-0.494140625,5.5t-0.4296875,3.630859375q-0.2578125,0.98828125-1.525390625,1.310546875t-2.169921875,0.322265625q-2.10546875,0-3.4375-1.203125q-0.98828125-2.36328125-1.16015625-5.88671875t-0.171875-6.875z M323.31234375,129.734375q0-3.0078125,0.666015625-7.08984375t2.255859375-7.734375t4.189453125-6.208984375t6.552734375-2.556640625q3.6953125,0,5.54296875,2.126953125t1.84765625,5.736328125q0,2.36328125-0.880859375,5.177734375t-2.513671875,5.328125t-3.8671875,4.189453125t-4.984375,1.67578125l-1.1171875-0.0859375q0,1.16015625,0.34375,3.115234375t1.009765625,3.888671875t1.71875,3.39453125t2.556640625,1.4609375q2.19140625,0,4.2109375-1.76171875t3.82421875-3.91015625t3.3515625-3.91015625t2.8359375-1.76171875q0.6875,0,1.41796875,0.21484375t0.81640625,1.203125q0,0.6015625-0.322265625,0.98828125t-0.580078125,0.859375q-1.33203125,2.27734375-2.900390625,4.33984375t-3.544921875,3.73828125t-4.318359375,2.642578125t-5.177734375,0.966796875q-3.6953125,0-6.14453125-1.310546875t-3.953125-3.5234375t-2.169921875-5.11328125t-0.666015625-6.080078125z M331.00375,126.46875l1.203125,1.07421875q0.859375,0.7734375,1.71875,0.34375t1.546875-1.568359375t1.267578125-2.814453125t1.03125-3.4375t0.666015625-3.4375t0.21484375-2.79296875l0-1.4609375t-0.12890625-1.546875t-0.451171875-1.224609375t-1.009765625-0.623046875q-0.21484375-0.04296875-0.38671875-0.04296875q-1.4609375,0-2.4921875,1.84765625q-1.1171875,2.0625-1.8046875,5.005859375t-0.98828125,6.037109375t-0.38671875,4.640625z M359.2630078125,128.1875l0-1.24609375q0-1.546875,0.0859375-2.921875q0.0859375-1.93359375,0.0859375-3.1796875q0-0.6875,0.0859375-1.568359375t0.4296875-1.396484375q0.4296875-0.4296875,1.009765625-0.880859375t1.267578125-0.451171875q2.19140625,0,3.4375,0.494140625t1.33203125,2.041015625l0.171875,1.33203125q0.7734375-1.84765625,2.0625-4.576171875t2.986328125-5.19921875t3.82421875-4.2109375t4.490234375-1.740234375q2.19140625,0,3.609375,2.0625t2.255859375,5.263671875t1.181640625,7.1328125t0.47265625,7.712890625t0.171875,6.896484375t0.30078125,4.705078125q0.171875,1.33203125,0.580078125,2.814453125t0.408203125,2.728515625q0,0.34375-0.494140625,0.666015625t-1.052734375,0.537109375t-1.138671875,0.34375t-0.837890625,0.12890625q-1.67578125,0-2.384765625-2.513671875t-0.880859375-6.294921875t-0.171875-8.185546875t-0.30078125-8.185546875t-1.224609375-6.294921875t-2.943359375-2.599609375q-1.84765625,0-3.82421875,2.384765625t-3.39453125,6.337890625q-1.375,3.953125-1.890625,8.98046875q-0.171875,1.58984375-0.171875,3.1796875q0,3.48046875,0.73046875,6.9609375q0.0859375,0.6015625-0.494140625,0.90234375t-1.439453125,0.47265625t-1.740234375,0.21484375t-1.353515625,0.04296875q-1.67578125,0-2.685546875-1.181640625t-1.568359375-3.029296875t-0.751953125-4.146484375t-0.236328125-4.533203125z"/><path fill="#" d=""/></svg>
