<?xml version="1.0"?>
<svg version="1.1" xmlns="http://www.w3.org/2000/svg" width="400px" height="200px" style=""><path fill="#2fdebb" d="M92,84.4140625q0-0.546875,0.76171875-0.83984375t0.99609375-0.29296875l1.4453125-0.234375q1.4453125-0.234375,2.9296875-0.41015625t2.890625-0.33203125q4.9609375-0.625,9.921875-1.23046875t10-0.60546875q0.390625,0,1.07421875,0.0390625t1.3671875,0.21484375t1.171875,0.48828125t0.48828125,0.859375q0,0.390625-0.37109375,0.68359375t-0.87890625,0.44921875t-1.03515625,0.1953125t-0.83984375,0.0390625l-0.68359375,0t-0.68359375-0.15625q-2.0703125,0-4.08203125,0.1953125t-4.08203125,0.3515625q0.546875,0.625,0.5859375,1.7578125t0.078125,1.953125q0,13.828125,0.1953125,27.5t0.3515625,27.6171875l0,0.078125q-1.2890625,1.1328125-2.20703125,1.4453125t-1.85546875,0.3125q-0.8984375,0-1.81640625-0.33203125t-2.20703125-1.42578125l0-0.078125l0.3125-30.6640625q0-3.046875-0.078125-6.71875t-0.078125-7.44140625t0.1171875-7.28515625t0.625-6.1328125q-2.3046875,0.234375-4.8828125,0.703125q-2.2265625,0.390625-4.2578125,0.390625l-0.703125,0q-0.15625,0-0.91796875,0.0390625t-1.5625-0.0390625t-1.4453125-0.3125t-0.64453125-0.78125z M129.838671875,126.171875q0-2.2265625,0.56640625-4.58984375t1.796875-4.2578125t3.10546875-3.0859375t4.53125-1.19140625q1.9921875,0,4.19921875,0.68359375t4.04296875,1.953125t2.98828125,3.10546875t1.15234375,4.1015625q0,2.734375-0.99609375,5.1953125t-2.79296875,4.39453125t-4.19921875,3.046875t-5.21484375,1.11328125q-2.3046875,0-4.0234375-0.83984375t-2.87109375-2.24609375t-1.71875-3.3203125t-0.56640625-4.0625z M135.580859375,126.09375q0,0.703125,0.21484375,2.0703125t0.64453125,2.67578125t1.11328125,2.265625t1.66015625,0.87890625q2.0703125-0.234375,3.41796875-1.34765625t2.1875-2.71484375t1.171875-3.4765625t0.33203125-3.5546875q0-2.1484375-0.83984375-3.59375t-2.75390625-2.34375q0,0.078125,0.078125,0.078125t0.078125-0.078125l-0.9765625-0.234375q-0.390625-0.15625-0.95703125-0.3515625t-1.11328125-0.859375q-1.5234375,0.546875-2.36328125,1.40625t-1.26953125,2.08984375t-0.52734375,2.94921875t-0.09765625,4.140625z M159.43515625,116.71875q0-1.1328125,0.64453125-1.484375t1.62109375-0.3515625q1.6015625,0,2.44140625,0.60546875t0.83984375,2.12890625q0,1.8359375,0.2734375,4.58984375t0.80078125,5.3515625t1.25,4.47265625t1.50390625,1.875q1.4453125,0,2.55859375-2.2265625t1.953125-5.46875t1.4453125-6.97265625t0.83984375-6.66015625q0.15625-1.6015625,0.76171875-2.32421875t2.20703125-0.72265625q1.8359375,0,2.67578125,1.5234375t1.07421875,3.75q0.1953125,1.9140625,0.1953125,3.984375l0,0.6640625l0,1.5625q0,1.484375,0.0390625,2.65625l1.1328125,23.9453125l0.15625,3.984375q0.078125,0.546875,0.1171875,1.03515625t0.0390625,1.03515625q0,2.2265625-0.95703125,2.87109375t-3.10546875,0.64453125q-0.46875,0-1.19140625-0.078125t-1.40625-0.3125t-1.171875-0.64453125t-0.48828125-1.03515625l0.15625-0.390625q0.1953125-2.34375,0.1953125-4.921875l0-0.8203125q-0.0390625-3.046875-0.1953125-6.171875t-0.3515625-6.25t-0.1953125-6.015625q-0.546875,1.2109375-1.26953125,2.5t-1.6796875,2.32421875t-2.16796875,1.71875t-2.734375,0.68359375q-2.2265625,0-3.671875-1.171875t-2.24609375-3.046875t-1.15234375-4.19921875t-0.46875-4.6484375t-0.15625-4.43359375t-0.3125-3.5546875z M192.000390625,90.46875q0-1.8359375,0.09765625-3.6328125t0.33203125-3.5546875q0.15625-0.8984375,1.38671875-1.2890625t2.05078125-0.390625l0.9375,0.078125q1.1328125,0.15625,2.28515625-0.15625t2.28515625-0.3125q2.65625,0,5.9375,0.5859375t6.15234375,1.9921875t4.82421875,3.69140625t1.953125,5.64453125t-2.03125,6.26953125t-5.1171875,5.1171875t-6.640625,3.45703125t-6.5234375,1.25q0.3125,7.5390625,0.87890625,14.9609375t1.93359375,14.84375l0.078125,0.5078125q0,0.546875-0.48828125,0.8984375t-1.15234375,0.56640625t-1.34765625,0.29296875t-1.11328125,0.078125q-0.9765625,0-2.36328125-0.37109375t-1.69921875-1.46484375q-0.8984375-3.4375-1.40625-7.55859375t-0.7421875-8.61328125t-0.33203125-9.04296875t-0.09765625-8.88671875l0-8.7890625q0-1.4453125-0.0390625-3.0078125t-0.0390625-3.1640625z M199.383203125,84.140625q0,5.3515625,0.1171875,10.68359375t0.2734375,10.68359375q2.3046875-0.46875,4.70703125-1.66015625t4.3359375-2.83203125t3.125-3.73046875t1.19140625-4.39453125q0-2.0703125-1.03515625-3.7109375t-2.67578125-2.8125q-1.6015625-1.1328125-3.6328125-1.7578125q-1.796875-0.546875-3.515625-0.546875l-0.4296875,0z M228.2375,125.4296875q0-2.65625,0.72265625-5.1171875t2.16796875-4.39453125t3.61328125-3.0859375t5.01953125-1.15234375q1.7578125,0,3.88671875,0.52734375t4.00390625,1.5625t3.125,2.63671875t1.25,3.671875q0,0.9765625-0.33203125,1.484375t-1.34765625,0.5078125l-0.4296875-0.078125q1.1328125,3.046875,1.953125,6.25t1.6015625,6.40625q0.3125,0.625,0.46875,1.11328125t0.15625,0.95703125q0,0.625-0.3515625,1.03515625t-0.91796875,0.60546875t-1.171875,0.2734375t-1.07421875,0.078125q-1.6796875,0-2.51953125-0.5859375t-1.2109375-1.6015625t-0.44921875-2.28515625t-0.3125-2.55859375q-0.46875,1.5234375-1.23046875,2.96875t-1.796875,2.59765625t-2.44140625,1.8359375t-3.1640625,0.68359375q-2.578125,0-4.3359375-1.484375t-2.83203125-3.65234375t-1.5625-4.62890625t-0.48828125-4.5703125z M233.784375,124.8828125q0,1.4453125,0.1953125,3.046875t0.64453125,3.1640625t1.15234375,2.94921875t1.7578125,2.44140625q1.9140625-2.0703125,2.83203125-5.0390625t1.640625-5.72265625t1.640625-4.7265625t2.83203125-1.97265625q1.2109375,0,2.03125,0.4296875q-0.390625-0.9765625-1.2890625-1.89453125t-2.01171875-1.6796875t-2.3046875-1.25t-2.24609375-0.48828125q-0.3125,0-0.72265625,0.09765625t-0.64453125,0.01953125q-1.6015625,0.46875-2.63671875,1.62109375t-1.6796875,2.71484375t-0.91796875,3.203125t-0.2734375,3.0859375z M262.091796875,114.4921875q0-1.6015625,0.56640625-2.6953125t2.40234375-1.09375q0.703125,0,1.7578125,0.21484375t1.2109375,1.07421875q0.390625,2.3046875,0.4296875,5t0.2734375,5.078125q0.8984375-1.7578125,2.3046875-3.7890625t3.203125-3.75t3.90625-2.8515625t4.296875-1.1328125q0.15625,0,0.5859375,0.1171875t0.80078125,0.33203125t0.44921875,0.48828125t-0.4296875,0.5078125q-0.15625,0.46875-0.6640625,0.56640625t-0.8984375,0.09765625q-0.234375,0-0.7421875-0.1953125q-2.890625,1.5234375-4.921875,4.140625t-3.3203125,5.80078125t-1.875,6.71875t-0.5859375,6.89453125q0,1.6796875-0.76171875,2.03125t-2.44140625,0.3515625q-0.8984375,0-1.89453125-0.1953125t-1.38671875-1.25q-0.703125-2.2265625-1.15234375-5.1171875t-0.68359375-5.95703125t-0.33203125-6.03515625t-0.09765625-5.3515625z M289.85234375,141.2890625l0.8203125-0.9765625q-0.15625-6.5625-0.3515625-13.0859375t-0.1953125-12.96875q0-8.0078125,0.95703125-15.48828125t1.89453125-15.33203125q0.078125-0.46875,0.44921875-0.76171875t0.91796875-0.48828125t1.11328125-0.2734375t1.03515625-0.078125q0.625,0,1.5625,0.234375t1.875,1.3671875q0,0.390625,0.05859375,0.68359375t0.05859375,0.68359375q0,2.96875-0.80078125,6.3671875t-1.07421875,6.5234375q-0.3125,3.828125-0.4296875,7.578125t-0.1171875,7.6171875l0.078125,3.4375q0.78125-0.9765625,2.2265625-2.5t3.125-2.94921875t3.359375-2.44140625t3.046875-1.015625q2.0703125,0,2.87109375,1.171875t0.80078125,3.0859375q0,1.7578125-0.76171875,3.671875t-1.9921875,3.73046875t-2.79296875,3.26171875t-3.0859375,2.1484375q2.0703125,2.578125,4.23828125,4.921875t4.74609375,4.4140625l0,0.8984375q-0.078125,0.390625-0.48828125,0.5859375t-0.8984375,0.3125t-0.95703125,0.17578125t-0.78125,0.05859375q-1.9140625,0-3.69140625-1.1328125t-3.3203125-2.7734375t-2.91015625-3.4765625t-2.5-3.203125q0.234375,4.4921875,0.52734375,8.96484375t0.29296875,8.96484375q0,0.546875-0.48828125,0.91796875t-1.1328125,0.56640625t-1.30859375,0.2734375t-1.09375,0.078125q-2.3046875,0-3.26171875-0.83984375t-1.62109375-2.91015625z M297.86015625,122.890625q0.9765625,0,2.32421875-0.83984375t2.79296875-2.08984375t2.6953125-2.63671875t2.01171875-2.63671875t0.76171875-2.01171875t-1.0546875-0.68359375q-0.390625,0-1.6015625,1.1328125t-2.6953125,2.7734375t-2.96875,3.5546875t-2.265625,3.4375z"/><path fill="#" d=""/></svg>
